<svg xmlns="http://www.w3.org/2000/svg" viewBox="0 0 500 500"><defs><clipPath id="a"><circle cx="294.8" cy="382.1" r="35.8" style="fill:#fff;stroke:#263238;stroke-linecap:round;stroke-linejoin:round;stroke-width:1.1133040189743042px"/></clipPath><clipPath id="b"><path d="M231 342c-22 0-35-19-40-37h0a7 7 0 1 1 12-4v1c4 13 14 28 30 27a21 21 0 0 0 15-7c9-10 13-32 12-43a5 5 0 1 1 10-1c1 13 0 39-12 52a34 34 0 0 1-25 12h-2Z" style="fill:#fff;stroke:#263238;stroke-linecap:round;stroke-linejoin:round;stroke-width:1.1133040189743042px"/></clipPath><clipPath id="c"><path d="M216 217s-9 28-4 50a43 43 0 0 0 24 29s-14 5-11 12 16 3 20 1 9-10 9-15a36 36 0 0 0 1-8s16-2 27-11c0 0 10 8 17 7s16-14 15-26-7-11-11-9a16 16 0 0 0-5 3s5-7 0-16a22 22 0 0 0-16-11s-3-16-12-22-41-12-54 16Z" style="fill:#fff;stroke:#263238;stroke-linecap:round;stroke-linejoin:round;stroke-width:1.1133040189743042px"/></clipPath><clipPath id="d"><path d="M196 203s-10 14-12 29 0 25 5 29 9 2 11-2-1-15-1-15 4-12 10-20l8-10s-11-12-21-11Z" style="fill:#fff;stroke:#263238;stroke-linecap:round;stroke-linejoin:round;stroke-width:1.1133040189743042px"/></clipPath><clipPath id="e"><path d="M278 195s12 14 15 29 2 24-2 28-9 4-12 0 0-15 0-15-5-12-12-19l-9-9s10-14 20-14Z" style="fill:#fff;stroke:#263238;stroke-linecap:round;stroke-linejoin:round;stroke-width:1.1133040189743042px"/></clipPath><clipPath id="f"><path d="M195 190s-3 10-2 14 7 1 12 5 10 13 31 15 33-10 37-16 4-13 11-14 1-14-1-17c0 0 14-21 14-26s-13-4-30 1c0 0-12-7-35-3s-28 10-28 10-28 4-30 7 4 18 21 24Z" style="fill:#fff;stroke:#263238;stroke-miterlimit:10;stroke-width:1.1133040189743042px"/></clipPath></defs><path d="M41 263s2 73 63 121 145 52 213 57 120-34 128-92-44-76-72-142-26-88-86-129-153-16-202 54-44 131-44 131Z" style="fill:#0099f6"/><path d="M41 263s2 73 63 121 145 52 213 57 120-34 128-92-44-76-72-142-26-88-86-129-153-16-202 54-44 131-44 131Z" style="fill:#fff;opacity:.7000000000000001"/><path d="M69 381h-9m381 0H83" style="fill:none;stroke:#263238;stroke-miterlimit:10;stroke-width:1.1133040189743042px"/><ellipse cx="306.1" cy="410.6" rx="30.4" ry="8.4" style="fill:#263238"/><path d="M149 430c-32 0-36-5-37-9a5 5 0 0 1 2-4c8-9 57-5 125 0l30 2c68 5 96 5 102-2v-6c-2-10-39-10-53-9a1 1 0 0 1-1-1 1 1 0 0 1 1-1c6-1 52-3 56 11 0 3 0 5-2 7-6 8-32 9-104 4l-29-2c-65-5-116-9-124-1a3 3 0 0 0 0 2c0 2 6 8 52 6l51-4a1 1 0 0 1 1 2l-52 4-18 1Z" style="fill:#fff;stroke:#263238;stroke-miterlimit:10;stroke-width:1.1133040189743042px"/><circle cx="294.8" cy="382.1" r="35.8" style="fill:#fff"/><g style="clip-path:url(#a)"><path d="M295 418a36 36 0 0 0 29-56c0 15-9 39-53 46a36 36 0 0 0 24 10Z" style="fill:#0099f6"/><path d="M295 418a36 36 0 0 0 29-56c0 15-9 39-53 46a36 36 0 0 0 24 10Z" style="fill:#fff;opacity:.30000000000000004"/><path d="M312 396a57 57 0 0 0-22-13 57 57 0 0 1 22 13h2a66 66 0 0 0 11-14c-17-18-33-16-33-16s16-2 33 16l2-5c-7-9-19-16-25-17h-1a21 21 0 0 0-7 0 21 21 0 0 1 7 0l4-12a36 36 0 0 0-6-2 90 90 0 0 0 0 0h-4a36 36 0 0 0-4 1c-4 6-12 21-13 44 8 3 20 5 34 5Zm8-7a50 50 0 0 0 0 0Z" style="fill:none;stroke:#263238;stroke-linecap:round;stroke-linejoin:round;stroke-width:1.1133040189743042px"/><path d="M278 391c1-23 9-38 13-44a36 36 0 0 0-10 2 71 71 0 0 0-12 38 65 65 0 0 0 9 4Z" style="fill:none;stroke:#263238;stroke-linecap:round;stroke-linejoin:round;stroke-width:1.1133040189743042px"/><path d="M281 349a36 36 0 0 0-22 31 46 46 0 0 0 10 7 71 71 0 0 1 12-38Zm46 28a44 44 0 0 0 2-5 36 36 0 0 0-7-14l-3 10 3-10a36 36 0 0 0-8-6l-3 11 3-11a35 35 0 0 0-9-4l-5 12c7 1 17 5 27 17Z" style="fill:none;stroke:#263238;stroke-linecap:round;stroke-linejoin:round;stroke-width:1.1133040189743042px"/><path d="M331 384v-2a36 36 0 0 0-2-10 44 44 0 0 1-2 5h0a23 23 0 0 1-1 4l-1 1-1 2-9 12-6 5h0a99 99 0 0 1-12 9h0a124 124 0 0 1-13 6 36 36 0 0 0 11 2h2c7-4 19-13 34-34Z" style="fill:none;stroke:#263238;stroke-linecap:round;stroke-linejoin:round;stroke-width:1.1133040189743042px"/><path d="M331 384c-15 21-27 30-34 34a36 36 0 0 0 34-34Zm-64 21a36 36 0 0 0 17 11 124 124 0 0 0 13-6c-9 1-22-3-30-5Z" style="fill:none;stroke:#263238;stroke-linecap:round;stroke-linejoin:round;stroke-width:1.1133040189743042px"/><path d="M297 410a99 99 0 0 0 12-9c-26 3-42-5-49-10a36 36 0 0 0 7 14c8 2 21 6 30 5Z" style="fill:none;stroke:#263238;stroke-linecap:round;stroke-linejoin:round;stroke-width:1.1133040189743042px"/><path d="m309 401 5-5h-2l1 1-1-1c-14 0-26-2-34-5v0c-12-5-17-9-19-11v2a36 36 0 0 0 1 9c7 5 23 13 49 10Z" style="fill:none;stroke:#263238;stroke-linecap:round;stroke-linejoin:round;stroke-width:1.1133040189743042px"/></g><circle cx="294.8" cy="382.1" r="35.8" style="fill:none;stroke:#263238;stroke-linecap:round;stroke-linejoin:round;stroke-width:1.1133040189743042px"/><path d="M361 321s-3-8-10-11c-5-2-11-1-16-1l-27 9s4-1 20 7c6 2 13 5 19 4 6 0 14-1 14-8Zm1-23s0-9-6-14c-5-3-10-4-15-5-10-1-19 0-29 1 0 0 4 0 17 12 5 4 11 8 17 10 5 1 14 2 16-4Zm16 30s-6-5-7-12c0-6 3-11 6-15 5-9 11-15 18-22 0 0-3 3-2 20 1 7 1 14-2 20-2 5-7 12-13 9Zm23 13s-1-8 5-14c3-3 9-5 14-6 9-3 18-2 28-3 0 0-4 0-16 14-4 5-9 9-15 12-5 2-13 4-16-3Z" style="fill:#0099f6"/><path d="M400 312s-9-1-13-8c-2-5-3-10-3-16 0-9 3-18 4-28 0 0 0 4 10 19 4 5 7 11 8 18 1 5 0 14-6 15Zm23-15s6 6 14 5c5-1 10-4 14-7 8-6 13-13 20-21 0 0-3 3-21 4-6 0-13 2-19 5-5 3-11 8-8 14Z" style="fill:#0099f6"/><path d="M416 291s9 1 14-5c4-3 6-9 7-14 2-9 2-19 2-28 0 0 0 4-13 16-5 4-10 9-12 15-2 5-4 14 2 16Z" style="fill:#0099f6"/><path d="m387 372-14-35-17-41m34 70 14-49 16-30m-24 59 14-8m-6-21-7-16m16 0 18-8m-56 50 6-24m-14 6-14-8" style="fill:none;stroke:#263238;stroke-linecap:round;stroke-linejoin:round;stroke-width:1.1133040189743042px"/><path d="M394 389h-12a8 8 0 0 1-8-6l-4-23h37l-5 23a8 8 0 0 1-8 6Z" style="fill:#263238;stroke:#263238;stroke-linecap:round;stroke-linejoin:round;stroke-width:1.1133040189743042px"/><path d="M231 342c-22 0-35-19-40-37a7 7 0 1 1 12-4v1c4 13 14 28 30 27a21 21 0 0 0 15-7c9-10 13-32 12-43a5 5 0 1 1 10-1c1 13 0 39-12 52a34 34 0 0 1-25 12h-2Z" style="fill:#fff"/><g style="clip-path:url(#b)"><path d="M265 274a5 5 0 0 0-5 5l-2 21a23 23 0 0 1 7 1 41 41 0 0 1-7 21 38 38 0 0 1-36 16c-5 0-11-3-16-6a36 36 0 0 0 25 10h2a34 34 0 0 0 25-12c12-13 13-39 12-52a5 5 0 0 0-5-4Z" style="fill:#0099f6"/><path d="M265 274a5 5 0 0 0-5 5l-2 21a23 23 0 0 1 7 1 41 41 0 0 1-7 21 38 38 0 0 1-36 16c-5 0-11-3-16-6a36 36 0 0 0 25 10h2a34 34 0 0 0 25-12c12-13 13-39 12-52a5 5 0 0 0-5-4Z" style="fill:#fff;opacity:.5"/></g><path d="M231 342c-22 0-35-19-40-37h0a7 7 0 1 1 12-4v1c4 13 14 28 30 27a21 21 0 0 0 15-7c9-10 13-32 12-43a5 5 0 1 1 10-1c1 13 0 39-12 52a34 34 0 0 1-25 12h-2Z" style="fill:none;stroke:#263238;stroke-linecap:round;stroke-linejoin:round;stroke-width:1.1133040189743042px"/><path d="M218 329c1-3-5 1-10 5a38 38 0 0 0 6 4l4-9Zm13 13h2a38 38 0 0 0 7-1l-8-8c-1-1-4 5-5 9a36 36 0 0 0 4 0Zm-28-40v-1a7 7 0 1 0-12 4h0a64 64 0 0 0 7 17l12-5a50 50 0 0 1-7-15Zm55 28a34 34 0 0 0 2-3l-11-3c-3 0 1 8 3 12a37 37 0 0 0 6-6Zm0-21 8 6a75 75 0 0 0 2-9l-10 3Zm12-15v-8c-3 2-7 4-7 6s4 2 7 2Z" style="fill:#0099f6;stroke:#263238;stroke-linecap:round;stroke-linejoin:round;stroke-width:1.1133040189743042px"/><path d="M216 217s-9 28-4 50a43 43 0 0 0 24 29s-14 5-11 12 16 3 20 1 9-10 9-15a36 36 0 0 0 1-8s16-2 27-11c0 0 10 8 17 7s16-14 15-26-7-11-11-9a16 16 0 0 0-5 3s5-7 0-16a22 22 0 0 0-16-11s-3-16-12-22-41-12-54 16Z" style="fill:#fff"/><g style="clip-path:url(#c)"><path d="M290 226a56 56 0 0 1-44 28c-20 1-31-3-36-5a127 127 0 0 1 6-32c13-28 45-21 54-15s12 21 12 21a21 21 0 0 1 8 3Zm13 21a16 16 0 0 0-5 3 13 13 0 0 0 2-5c-14 7-12 21-14 21s-3-7-3-7-3 10-18 17-33 2-33 2 3 8-6 7a15 15 0 0 1-7-3 43 43 0 0 0 17 14s-14 5-11 12 16 3 20 1 9-10 9-15a36 36 0 0 0 1-8s16-2 27-11c0 0 10 8 17 7s16-14 15-26-7-11-11-9Z" style="fill:#0099f6"/><path d="M290 226a56 56 0 0 1-44 28c-20 1-31-3-36-5a127 127 0 0 1 6-32c13-28 45-21 54-15s12 21 12 21a21 21 0 0 1 8 3Zm13 21a16 16 0 0 0-5 3 13 13 0 0 0 2-5c-14 7-12 21-14 21s-3-7-3-7-3 10-18 17-33 2-33 2 3 8-6 7a15 15 0 0 1-7-3 43 43 0 0 0 17 14s-14 5-11 12 16 3 20 1 9-10 9-15a36 36 0 0 0 1-8s16-2 27-11c0 0 10 8 17 7s16-14 15-26-7-11-11-9Z" style="fill:#fff;opacity:.5"/><path d="M255 286a35 35 0 0 1-28-13" style="fill:none;stroke:#263238;stroke-linecap:round;stroke-linejoin:round;stroke-width:1.1133040189743042px"/></g><path d="M216 217s-9 28-4 50a43 43 0 0 0 24 29s-14 5-11 12 16 3 20 1 9-10 9-15a36 36 0 0 0 1-8s16-2 27-11c0 0 10 8 17 7s16-14 15-26-7-11-11-9a16 16 0 0 0-5 3s5-7 0-16a22 22 0 0 0-16-11s-3-16-12-22-41-12-54 16Z" style="fill:none;stroke:#263238;stroke-linecap:round;stroke-linejoin:round;stroke-width:1.1133040189743042px"/><path d="M298 251s-6 3-8 14" style="fill:none;stroke:#263238;stroke-linecap:round;stroke-linejoin:round;stroke-width:1.1133040189743042px"/><path d="M307 255c0 2-2 3-4 3s-2-3-1-5 2-3 4-2 2 2 1 4Zm5 3c0 2-2 3-3 3s-3-3-2-4 2-3 4-3 2 3 1 4Z" style="fill:#fff;stroke:#263238;stroke-linecap:round;stroke-linejoin:round;stroke-width:1.1133040189743042px"/><path d="M313 263a2 2 0 1 1-1-3 2 2 0 0 1 1 3Zm-6 7c-2 3-6 5-8 3s-4-5-2-8 6-5 8-4 4 6 2 9Z" style="fill:#fff;stroke:#263238;stroke-linecap:round;stroke-linejoin:round;stroke-width:1.1133040189743042px"/><path d="M236 296a15 15 0 0 0 11 1m-22 12s1-5 7-8m-1 11s3-6 7-8" style="fill:none;stroke:#263238;stroke-linecap:round;stroke-linejoin:round;stroke-width:1.1133040189743042px"/><path d="M133 243a9 9 0 0 1-3-7v-23H69a10 10 0 0 1-8-4 11 11 0 0 1-3-8 12 12 0 0 1 2-6l58-92q7-10 18-10a16 16 0 0 1 11 3q4 4 4 11v90h16a7 7 0 0 1 5 2 9 9 0 0 1 0 11 7 7 0 0 1-5 3h-16v23a9 9 0 0 1-3 7 11 11 0 0 1-7 3 11 11 0 0 1-8-3Zm-3-46v-82l-51 82Zm88 47a42 42 0 0 1-15-12 60 60 0 0 1-10-17 102 102 0 0 1-5-22 177 177 0 0 1-2-24q0-79 54-79t54 79a183 183 0 0 1-2 24 100 100 0 0 1-5 22 60 60 0 0 1-10 17 43 43 0 0 1-15 12 52 52 0 0 1-22 4 52 52 0 0 1-22-4Zm33-15a25 25 0 0 0 8-6 32 32 0 0 0 5-8 60 60 0 0 0 4-10 83 83 0 0 0 2-12l2-12v-24l-2-12a92 92 0 0 0-2-12 57 57 0 0 0-4-10 31 31 0 0 0-5-8 24 24 0 0 0-8-5 30 30 0 0 0-22 0 24 24 0 0 0-8 5 32 32 0 0 0-5 8 51 51 0 0 0-4 10 95 95 0 0 0-2 12l-1 12-1 12 1 12 1 12a85 85 0 0 0 2 12 60 60 0 0 0 4 10 31 31 0 0 0 5 8 25 25 0 0 0 8 6 28 28 0 0 0 22 0Zm136 14a9 9 0 0 1-4-7v-23h-61a10 10 0 0 1-8-4 11 11 0 0 1-3-8 12 12 0 0 1 2-6l59-92q6-10 17-10a16 16 0 0 1 11 3q4 4 4 11v90h16a7 7 0 0 1 6 2 9 9 0 0 1 0 11 7 7 0 0 1-6 3h-16v23a9 9 0 0 1-3 7 11 11 0 0 1-7 3 11 11 0 0 1-7-3Zm-4-46v-82l-51 82Z" style="fill:#263238"/><path d="M196 203s-10 14-12 29 0 25 5 29 9 2 11-2-1-15-1-15 4-12 10-20l8-10s-11-12-21-11Z" style="fill:#fff"/><g style="clip-path:url(#d)"><path d="M196 203a81 81 0 0 0-6 10c5 2 13 6 18 13l2-2 7-10s-11-12-21-11Z" style="fill:#0099f6"/><path d="M196 203a81 81 0 0 0-6 10c5 2 13 6 18 13l2-2 7-10s-11-12-21-11Z" style="fill:#fff;opacity:.5"/></g><path d="M196 203s-10 14-12 29 0 25 5 29 9 2 11-2-1-15-1-15 4-12 10-20l8-10s-11-12-21-11Z" style="fill:none;stroke:#263238;stroke-linecap:round;stroke-linejoin:round;stroke-width:1.1133040189743042px"/><path d="M189 261a28 28 0 0 1-2-10m9 11s-3-4-3-11" style="fill:none;stroke:#263238;stroke-linecap:round;stroke-linejoin:round;stroke-width:1.1133040189743042px"/><path d="M199 229c0-2-5-8-12-10a59 59 0 0 0-2 8 29 29 0 0 1 8 2c4 2 6 3 6 0Zm-4-26a84 84 0 0 0-4 8 24 24 0 0 1 6 3c8 4 9 5 7-2-2-4-5-7-9-9Z" style="fill:#0099f6;stroke:#263238;stroke-linecap:round;stroke-linejoin:round;stroke-width:1.1133040189743042px"/><path d="M278 195s12 14 15 29 2 24-2 28-9 4-12 0 0-15 0-15-5-12-12-19l-9-9s10-14 20-14Z" style="fill:#fff"/><g style="clip-path:url(#e)"><path d="M278 195c-10 0-20 14-20 14l9 9a53 53 0 0 1 3 4 42 42 0 0 1 16-15 82 82 0 0 0-8-12Z" style="fill:#0099f6"/><path d="M278 195c-10 0-20 14-20 14l9 9a53 53 0 0 1 3 4 42 42 0 0 1 16-15 82 82 0 0 0-8-12Z" style="fill:#fff;opacity:.5"/></g><path d="M278 195s12 14 15 29 2 24-2 28-9 4-12 0 0-15 0-15-5-12-12-19l-9-9s10-14 20-14Z" style="fill:none;stroke:#263238;stroke-linecap:round;stroke-linejoin:round;stroke-width:1.1133040189743042px"/><path d="M291 252a28 28 0 0 0 1-10m-8 13s2-5 2-12" style="fill:none;stroke:#263238;stroke-linecap:round;stroke-linejoin:round;stroke-width:1.1133040189743042px"/><path d="M277 222c0-3 5-8 11-11a59 59 0 0 1 3 7 30 30 0 0 0-7 3c-4 3-6 4-7 1Zm2-26a81 81 0 0 1 5 7 24 24 0 0 0-6 3c-7 5-9 6-7-1 1-4 5-7 8-9Z" style="fill:#0099f6;stroke:#263238;stroke-linecap:round;stroke-linejoin:round;stroke-width:1.1133040189743042px"/><path d="M195 190s-3 10-2 14 7 1 12 5 10 13 31 15 33-10 37-16 4-13 11-14 1-14-1-17c0 0 14-21 14-26s-13-4-30 1c0 0-12-7-35-3s-28 10-28 10-28 4-30 7 4 18 21 24Z" style="fill:#fff"/><g style="clip-path:url(#f)"><path d="M284 194c7 0 1-14-1-17l6-9c-9-4-17-6-19-4-5 5-2 15 0 25s-6 14-12 23-15-1-15-1c-3 12-15 4-15 4-10-3-26-13-23-19s4-14-2-19-29-10-29-10c-2 4 4 18 21 23 0 0-3 10-2 14s7 1 12 5 10 13 31 15 33-10 37-16 4-13 11-14Z" style="fill:#0099f6"/><path d="M284 194c7 0 1-14-1-17l6-9c-9-4-17-6-19-4-5 5-2 15 0 25s-6 14-12 23-15-1-15-1c-3 12-15 4-15 4-10-3-26-13-23-19s4-14-2-19-29-10-29-10c-2 4 4 18 21 23 0 0-3 10-2 14s7 1 12 5 10 13 31 15 33-10 37-16 4-13 11-14Z" style="fill:#fff;opacity:.5"/><path d="M254 197c0 2-5 5-12 6s-13-1-13-3 5-5 12-6 13 0 13 3Z" style="fill:#0099f6"/><path d="M254 197c0 2-5 5-12 6s-13-1-13-3 5-5 12-6 13 0 13 3Z" style="fill:#fff;opacity:.5"/></g><path d="M195 190s-3 10-2 14 7 1 12 5 10 13 31 15 33-10 37-16 4-13 11-14 1-14-1-17c0 0 14-21 14-26s-13-4-30 1c0 0-12-7-35-3s-28 10-28 10-28 4-30 7 4 18 21 24Z" style="fill:none;stroke:#263238;stroke-miterlimit:10;stroke-width:1.1133040189743042px"/><path d="M275 159c-10 7-7 13-2 17 2 2 7 2 10 2s14-22 14-27c0 0-12 1-22 8Zm-101 8c-2 4 4 18 21 23 0 0 13-1 9-12-4-9-24-12-30-11Zm58-18-3 1c2 10 5 27 8 27s5-19 6-29a82 82 0 0 0-11 1Zm-11 25c3-2 3-16 2-23a82 82 0 0 0-9 3c1 7 4 22 7 20Zm30-7c3 2 4-10 5-18a62 62 0 0 0-9-1c0 7 0 18 4 19Z" style="fill:#0099f6;stroke:#263238;stroke-miterlimit:10;stroke-width:1.1133040189743042px"/><path d="M246 206a12 12 0 0 0-8 1 1 1 0 0 0 0 2l5 5a1 1 0 0 0 1 0l3-6a1 1 0 0 0-1-2Z" style="fill:#0099f6;stroke:#263238;stroke-linecap:round;stroke-linejoin:round;stroke-width:1.1133040189743042px"/><path d="m234 198-1 4-3-2v-5c1-1 3 1 4 3Zm14-1c0 2 0 3 2 4s2-2 2-4l-1-4c-1-1-2 2-3 4Z" style="fill:#263238"/><path d="M244 214s-7 9-13-1" style="fill:none;stroke:#263238;stroke-linecap:round;stroke-linejoin:round;stroke-width:1.1133040189743042px"/><path d="M243 214s5 5 10 2 2-7 2-7" style="fill:none;stroke:#263238;stroke-linecap:round;stroke-linejoin:round;stroke-width:1.1133040189743042px"/><path d="M221 190s2-6 10-4m15-1s6-4 12 2" style="fill:none;stroke:#263238;stroke-linecap:round;stroke-linejoin:round;stroke-width:3.3399120569229126px"/><path d="m217 207 5 2m0 2-5 1m6 1-4 2m42-11 5-1m-4 4h3m-3 2 5 2" style="fill:none;stroke:#263238;stroke-linecap:round;stroke-miterlimit:10;stroke-width:1.1133040189743042px"/></svg>
