<svg width="1909" height="800" xmlns="http://www.w3.org/2000/svg" xmlns:xlink="http://www.w3.org/1999/xlink" xml:space="preserve" overflow="hidden"><defs><linearGradient x1="3373.5" y1="923" x2="3373.5" y2="123" gradientUnits="userSpaceOnUse" spreadMethod="reflect" id="fill0"><stop offset="0" stop-color="#FC3F04"/><stop offset="0.15" stop-color="#FC3F04"/><stop offset="1" stop-color="#FFC000"/></linearGradient></defs><g transform="translate(-1864 -123)"><path d="M2340.7 668.47C2338.72 668.47 2337.03 669.131 2335.63 670.451 2334.23 671.772 2333.07 673.465 2332.17 675.528 2331.26 677.592 2330.6 679.821 2330.19 682.215 2329.78 684.609 2329.57 686.879 2329.57 689.025 2329.57 691.007 2329.69 693.4 2329.94 696.207 2330.19 699.014 2330.81 701.697 2331.8 704.256 2332.79 706.815 2334.27 708.961 2336.25 710.695 2338.23 712.428 2341.03 713.295 2344.66 713.295 2348.12 713.295 2350.71 711.685 2352.45 708.466 2354.18 705.246 2355.04 700.995 2355.04 695.712 2355.04 687.622 2353.6 681.059 2350.71 676.024 2347.83 670.988 2344.49 668.47 2340.7 668.47ZM2366.42 656.583C2370.87 660.05 2374.25 664.962 2376.56 671.319 2378.86 677.675 2380.02 684.815 2380.02 692.74 2380.02 696.702 2379.48 700.5 2378.41 704.132 2377.34 707.764 2376.56 710.818 2376.06 713.295L2407.22 713.295C2406.89 705.37 2406.15 698.147 2405 691.626 2403.84 685.104 2401.82 679.408 2398.94 674.538 2396.05 669.668 2392.01 665.705 2386.82 662.651 2381.63 659.597 2374.83 657.574 2366.42 656.583ZM2651.35 632.066C2654.65 650.557 2656.88 668.594 2658.03 686.177 2659.19 703.76 2659.76 719.404 2659.76 733.107 2659.76 734.262 2659.68 736.657 2659.52 740.289 2659.35 743.921 2658.69 748.09 2657.54 752.795 2656.38 757.5 2654.45 762.453 2651.73 767.654 2649 772.855 2645.09 777.643 2639.98 782.018 2634.87 786.393 2628.31 789.983 2620.32 792.79 2612.32 795.597 2602.39 797 2590.52 797L2584.83 779.17C2593.24 778.509 2600.74 776.528 2607.34 773.226 2610.14 771.74 2612.9 769.924 2615.62 767.778 2618.34 765.631 2620.77 763.031 2622.92 759.977 2625.06 756.922 2626.79 753.29 2628.11 749.08 2629.43 744.87 2630.09 740.041 2630.09 734.593 2630.09 719.569 2629.72 704.173 2628.97 688.406 2628.23 672.639 2625.8 657.078 2621.68 641.724ZM2724.17 624.884C2735.54 627.691 2745.52 632.603 2754.09 639.619 2762.66 646.636 2769.75 654.478 2775.36 663.146 2780.96 671.814 2785.17 680.647 2787.97 689.644 2790.77 698.642 2792.17 706.526 2792.17 713.295L2792.17 740.289 2702.9 740.289C2699.93 740.289 2697.21 740.124 2694.74 739.794 2692.27 739.463 2690.12 739.05 2688.31 738.555 2686.17 737.895 2684.19 737.234 2682.38 736.574L2684.6 709.58C2686.41 710.241 2688.39 710.901 2690.54 711.561 2692.35 712.057 2694.49 712.469 2696.97 712.8 2699.44 713.13 2702.16 713.295 2705.13 713.295L2761.02 713.295C2761.02 710.158 2760.52 705.989 2759.53 700.789 2758.54 695.588 2756.56 690.098 2753.6 684.32 2750.63 678.541 2746.26 672.804 2740.49 667.108 2734.72 661.413 2726.97 656.418 2717.24 652.126ZM2847.02 572.383 2847.02 740.289 2815.61 740.289 2815.61 581.298ZM2584.89 571.392 2576.97 604.329 2514.66 623.398C2521.58 628.186 2528.22 633.8 2534.56 640.239 2540.91 646.677 2546.56 653.281 2551.5 660.05 2556.78 667.48 2561.23 675.033 2564.86 682.71 2568.48 690.387 2570.3 698.106 2570.3 705.865L2570.3 713.295 2570.3 740.289 2462.86 740.289 2456.79 740.289 2438.63 740.289 2289.95 740.289 2285.06 740.289 2204.08 740.289 2200.43 740.289 2118.22 740.289 2114.56 740.289 2032.35 740.289 2028.7 740.289 1950.58 740.289 1942.83 740.289 1891.48 740.289 1891.48 581.298 1922.88 572.383 1922.88 713.295 1942.83 713.295 1950.58 713.295 2028.7 713.295 2032.35 713.295 2114.56 713.295 2118.22 713.295 2200.43 713.295 2204.08 713.295 2285.06 713.295 2289.95 713.295 2312.26 713.295C2308.96 710.984 2307.07 707.723 2306.57 703.513 2306.08 699.303 2305.83 694.556 2305.83 689.273 2305.83 685.476 2306.45 681.431 2307.69 677.138 2308.92 672.846 2310.69 668.759 2313 664.88 2315.31 661 2318.07 657.698 2321.29 654.974 2324.5 652.249 2328.09 650.557 2332.04 649.897 2327.1 649.897 2322.94 649.278 2319.56 648.04 2316.18 646.801 2313.37 644.985 2311.15 642.591 2308.92 640.197 2307.23 637.308 2306.08 633.923 2304.92 630.539 2304.02 626.7 2303.36 622.408 2315.89 626.205 2336.91 629.424 2366.42 632.066 2379.77 633.717 2391.02 636.359 2400.17 639.991 2409.32 643.623 2416.74 648.617 2422.43 654.974 2428.12 661.33 2432.24 669.172 2434.79 678.5 2437.35 687.828 2438.63 699.096 2438.63 712.304L2438.63 713.295 2456.79 713.295 2462.86 713.295 2540.87 713.295 2540.87 705.865C2540.87 701.078 2539.55 695.918 2536.91 690.387 2534.27 684.857 2530.61 679.45 2525.91 674.167 2521.21 668.883 2515.56 663.806 2508.97 658.936 2502.37 654.065 2495.12 649.897 2487.21 646.43L2489.18 603.834ZM2809.43 377.373C2807.78 377.373 2804.9 379.272 2800.77 383.069 2798.3 385.546 2795.7 388.971 2792.98 393.346 2790.26 397.721 2788 401.643 2786.18 405.11 2793.11 410.393 2800.28 414.892 2807.7 418.607 2815.12 422.321 2822.29 425.169 2829.21 427.15 2827.23 412.291 2824.64 400.281 2821.42 391.117 2818.21 381.955 2814.21 377.373 2809.43 377.373ZM2547.77 372.668C2528.48 372.668 2506.63 387.609 2482.23 417.492L2577.19 417.492 2577.19 404.119C2577.19 394.708 2574.64 387.114 2569.53 381.335 2564.42 375.557 2557.16 372.668 2547.77 372.668ZM1940.17 368.21C1933.24 369.531 1926.94 371.182 1921.25 373.163 1915.56 375.144 1910.74 377.291 1906.78 379.602 1902.82 381.913 1899.73 384.39 1897.51 387.031 1895.28 389.673 1894.09 392.314 1893.92 394.956L1893.92 402.881C1893.92 407.669 1895.32 411.301 1898.13 413.777 1900.93 416.254 1905.46 417.492 1911.73 417.492L1940.17 417.492ZM2702.98 336.016 2702.98 417.492 2734.99 417.492 2742.8 417.492 2753.29 417.492C2758.24 406.1 2763.43 395.74 2768.87 386.412 2774.31 377.084 2779.71 369.159 2785.07 362.638 2790.43 356.117 2795.62 351.04 2800.65 347.407 2805.68 343.775 2810.34 341.959 2814.62 341.959 2825.5 341.959 2834.57 349.719 2841.83 365.238 2843.97 369.861 2846.11 375.681 2848.25 382.697 2850.4 389.714 2852.71 398.175 2855.18 408.081 2856.66 414.851 2857.24 419.804 2856.91 422.941 2856.58 427.233 2854.68 432.681 2851.22 439.285 2844.63 452.823 2838.36 459.592 2832.43 459.592 2830.28 459.592 2827.98 459.015 2825.5 457.859 2820.56 455.878 2813.84 452.823 2805.35 448.696 2796.86 444.568 2786.6 439.45 2774.56 433.342 2771.76 438.295 2768.54 441.514 2764.92 443 2762.11 443.99 2757.5 444.486 2751.07 444.486L2742.8 444.486 2734.99 444.486 2631.6 444.486 2625.09 444.486 2434.2 444.486 2429.31 444.486 2348.34 444.486 2344.68 444.486 2262.47 444.486 2258.82 444.486 2176.61 444.486 2172.95 444.486 2090.74 444.486 2087.09 444.486 2005.7 444.486 2001.22 444.486 1950.31 444.486C1948.49 443.33 1946.97 441.844 1945.73 440.028 1944.49 438.212 1943.46 436.396 1942.64 434.58 1941.81 432.599 1941.16 430.535 1940.66 428.389 1939.84 431.526 1938.19 434.25 1935.71 436.561 1933.57 438.542 1930.48 440.358 1926.44 442.009 1922.4 443.66 1916.92 444.486 1910 444.486 1893.18 444.486 1881.31 440.482 1874.39 432.475 1867.46 424.468 1864 413.447 1864 399.414 1864 392.48 1866.02 385.711 1870.06 379.107 1874.1 372.503 1880.4 366.559 1888.98 361.276 1897.55 355.993 1908.55 351.452 1921.99 347.655 1935.43 343.858 1951.46 341.299 1970.09 339.978L1970.09 417.492 2001.22 417.492 2005.7 417.492 2087.09 417.492 2090.74 417.492 2172.95 417.492 2176.61 417.492 2258.82 417.492 2262.47 417.492 2344.68 417.492 2348.34 417.492 2429.31 417.492 2434.2 417.492 2452.56 417.492 2452.56 357.066 2483.96 348.15 2484.21 384.555C2498.88 370.521 2512.53 360.037 2525.14 353.103 2537.75 346.169 2550.49 342.702 2563.35 342.702 2573.24 342.702 2581.19 345.22 2587.21 350.255 2593.23 355.291 2597.93 361.565 2601.3 369.077 2604.68 376.589 2606.95 384.678 2608.11 393.346 2609.26 402.014 2609.92 410.063 2610.08 417.492L2625.09 417.492 2631.6 417.492 2671.58 417.492 2671.58 344.931ZM2685.92 285C2691.03 285 2695.36 286.857 2698.9 290.572 2702.45 294.287 2704.22 298.786 2704.22 304.069 2704.22 309.187 2702.45 313.521 2698.9 317.07 2695.36 320.62 2691.03 322.395 2685.92 322.395 2680.65 322.395 2676.15 320.62 2672.44 317.07 2668.73 313.521 2666.88 309.187 2666.88 304.069 2666.88 298.786 2668.73 294.287 2672.44 290.572 2676.15 286.857 2680.65 285 2685.92 285ZM1952.53 285C1957.64 285 1961.97 286.857 1965.51 290.572 1969.06 294.287 1970.83 298.786 1970.83 304.069 1970.83 309.187 1969.06 313.521 1965.51 317.07 1961.97 320.62 1957.64 322.395 1952.53 322.395 1947.26 322.395 1942.76 320.62 1939.05 317.07 1935.34 313.521 1933.49 309.187 1933.49 304.069 1933.49 298.786 1935.34 294.287 1939.05 290.572 1942.76 286.857 1947.26 285 1952.53 285ZM1903.57 285C1908.68 285 1913.01 286.857 1916.55 290.572 1920.09 294.287 1921.87 298.786 1921.87 304.069 1921.87 309.187 1920.09 313.521 1916.55 317.07 1913.01 320.62 1908.68 322.395 1903.57 322.395 1898.29 322.395 1893.8 320.62 1890.09 317.07 1886.38 313.521 1884.53 309.187 1884.53 304.069 1884.53 298.786 1886.38 294.287 1890.09 290.572 1893.8 286.857 1898.29 285 1903.57 285Z" fill-rule="evenodd"/><path d="M3264 754.5C3264 726.61 3286.83 704 3315 704 3343.17 704 3366 726.61 3366 754.5 3366 782.39 3343.17 805 3315 805 3286.83 805 3264 782.39 3264 754.5Z" fill="#FFD966" fill-rule="evenodd"/><path d="M3261 325.5C3261 299.267 3282.27 278 3308.5 278 3334.73 278 3356 299.267 3356 325.5 3356 351.734 3334.73 373 3308.5 373 3282.27 373 3261 351.734 3261 325.5Z" fill="#FFD966" fill-rule="evenodd"/><path d="M3064 567C3064 511.219 3109.22 466 3165 466 3220.78 466 3266 511.219 3266 567 3266 622.781 3220.78 668 3165 668 3109.22 668 3064 622.781 3064 567Z" fill="#FFD966" fill-rule="evenodd"/><path d="M3373.96 123C3456.8 123 3533.75 148.184 3597.58 191.314L3626.81 213.171 3312.12 274.848C3286.66 279.838 3270.07 304.527 3275.06 329.992 3280.05 355.456 3304.73 372.054 3330.19 367.064L3701.78 294.233 3705.61 299.356C3716.4 315.316 3726.06 332.096 3734.48 349.584L3736 353.432 3723.94 354.572 3146.34 468.485C3093.82 478.842 3059.64 529.814 3070 582.333 3080.36 634.853 3131.32 669.033 3183.84 658.676L3761.44 544.762 3773 541.248 3771.86 563.898C3770.58 576.504 3768.71 588.938 3766.29 601.17L3763.29 613.29 3312.1 705.022C3285.48 710.433 3268.29 736.401 3273.7 763.021L3273.7 763.021C3279.11 789.641 3305.07 806.834 3331.69 801.423L3719.06 722.668 3691.56 766.159C3618.46 861.516 3503.39 923 3373.96 923 3153.07 923 2974 743.914 2974 523 2974 302.086 3153.07 123 3373.96 123Z" fill="url(#fill0)" fill-rule="evenodd"/></g></svg>