<svg width="2420" height="800" xmlns="http://www.w3.org/2000/svg" xmlns:xlink="http://www.w3.org/1999/xlink" xml:space="preserve" overflow="hidden"><defs><linearGradient x1="3373.5" y1="923" x2="3373.5" y2="123" gradientUnits="userSpaceOnUse" spreadMethod="reflect" id="fill0"><stop offset="0" stop-color="#FC3F04"/><stop offset="0.15" stop-color="#FC3F04"/><stop offset="1" stop-color="#FFC000"/></linearGradient></defs><g transform="translate(-1353 -123)"><path d="M3264 754.5C3264 726.61 3286.83 704 3315 704 3343.17 704 3366 726.61 3366 754.5 3366 782.39 3343.17 805 3315 805 3286.83 805 3264 782.39 3264 754.5Z" fill="#FFD966" fill-rule="evenodd"/><path d="M3261 325.5C3261 299.267 3282.27 278 3308.5 278 3334.73 278 3356 299.267 3356 325.5 3356 351.734 3334.73 373 3308.5 373 3282.27 373 3261 351.734 3261 325.5Z" fill="#FFD966" fill-rule="evenodd"/><path d="M3064 567C3064 511.219 3109.22 466 3165 466 3220.78 466 3266 511.219 3266 567 3266 622.781 3220.78 668 3165 668 3109.22 668 3064 622.781 3064 567Z" fill="#FFD966" fill-rule="evenodd"/><path d="M3373.96 123C3456.8 123 3533.75 148.184 3597.58 191.314L3626.81 213.171 3312.12 274.848C3286.66 279.838 3270.07 304.527 3275.06 329.992 3280.05 355.456 3304.73 372.054 3330.19 367.064L3701.78 294.233 3705.61 299.356C3716.4 315.316 3726.06 332.096 3734.48 349.584L3736 353.432 3723.94 354.572 3146.34 468.485C3093.82 478.842 3059.64 529.814 3070 582.333 3080.36 634.853 3131.32 669.033 3183.84 658.676L3761.44 544.762 3773 541.248 3771.86 563.898C3770.58 576.504 3768.71 588.938 3766.29 601.17L3763.29 613.29 3312.1 705.022C3285.48 710.433 3268.29 736.401 3273.7 763.021L3273.7 763.021C3279.11 789.641 3305.07 806.834 3331.69 801.423L3719.06 722.668 3691.56 766.159C3618.46 861.516 3503.39 923 3373.96 923 3153.07 923 2974 743.914 2974 523 2974 302.086 3153.07 123 3373.96 123Z" fill="url(#fill0)" fill-rule="evenodd"/><path d="M2074.53 715.699C2071.53 715.699 2068.98 716.698 2066.86 718.694 2064.73 720.691 2062.99 723.249 2061.62 726.369 2060.24 729.489 2059.25 732.858 2058.62 736.477 2058 740.096 2057.69 743.528 2057.69 746.772 2057.69 749.768 2057.87 753.386 2058.25 757.63 2058.62 761.872 2059.56 765.928 2061.05 769.796 2062.55 773.665 2064.8 776.909 2067.79 779.53 2070.79 782.151 2075.03 783.461 2080.52 783.461 2085.76 783.461 2089.69 781.028 2092.31 776.161 2094.93 771.294 2096.24 764.867 2096.24 756.88 2096.24 744.651 2094.06 734.73 2089.69 727.118 2085.32 719.505 2080.27 715.699 2074.53 715.699ZM2113.46 697.729C2120.19 702.971 2125.31 710.396 2128.8 720.005 2132.3 729.614 2134.04 740.408 2134.04 752.388 2134.04 758.378 2133.23 764.119 2131.61 769.609 2129.99 775.1 2128.8 779.718 2128.05 783.461L2175.22 783.461C2174.72 771.481 2173.59 760.562 2171.85 750.703 2170.1 740.845 2167.04 732.234 2162.68 724.871 2158.31 717.509 2152.2 711.519 2144.34 706.902 2136.48 702.284 2126.18 699.227 2113.46 697.729ZM2544.74 660.666C2549.73 688.62 2553.1 715.886 2554.84 742.467 2556.59 769.047 2557.46 792.696 2557.46 813.411 2557.46 815.158 2557.34 818.777 2557.09 824.268 2556.84 829.759 2555.84 836.061 2554.09 843.174 2552.35 850.287 2549.41 857.775 2545.3 865.637 2541.18 873.499 2535.25 880.737 2527.52 887.351 2519.78 893.964 2509.86 899.393 2497.76 903.636 2485.66 907.879 2470.62 910 2452.66 910L2444.05 883.045C2456.77 882.047 2468.13 879.052 2478.11 874.06 2482.35 871.814 2486.53 869.069 2490.65 865.824 2494.77 862.579 2498.45 858.649 2501.69 854.031 2504.93 849.414 2507.55 843.923 2509.55 837.558 2511.55 831.194 2512.55 823.894 2512.55 815.658 2512.55 792.945 2511.98 769.672 2510.86 745.837 2509.74 722.001 2506.06 698.478 2499.82 675.267ZM2654.95 649.809C2672.16 654.052 2687.26 661.477 2700.24 672.084 2713.21 682.692 2723.94 694.547 2732.43 707.65 2740.91 720.753 2747.27 734.106 2751.52 747.708 2755.76 761.31 2757.88 773.229 2757.88 783.461L2757.88 824.268 2622.76 824.268C2618.27 824.268 2614.15 824.019 2610.4 823.52 2606.66 823.02 2603.42 822.396 2600.67 821.648 2597.43 820.649 2594.43 819.651 2591.69 818.652L2595.06 777.846C2597.8 778.844 2600.8 779.842 2604.04 780.84 2606.79 781.589 2610.03 782.213 2613.77 782.712 2617.52 783.212 2621.63 783.461 2626.13 783.461L2710.72 783.461C2710.72 778.719 2709.97 772.417 2708.47 764.555 2706.98 756.693 2703.98 748.395 2699.49 739.659 2695 730.924 2688.38 722.251 2679.65 713.64 2670.92 705.03 2659.19 697.479 2644.47 690.99ZM2840.89 570.442 2840.89 824.268 2793.36 824.268 2793.36 583.919ZM2444.13 568.944 2432.15 618.736 2337.83 647.563C2348.31 654.801 2358.35 663.287 2367.96 673.021 2377.57 682.754 2386.11 692.738 2393.6 702.971 2401.59 714.202 2408.32 725.62 2413.81 737.226 2419.3 748.831 2422.05 760.499 2422.05 772.23L2422.05 783.461 2422.05 824.268 2259.43 824.268 2250.24 824.268 2222.75 824.268 1997.71 824.268 1990.31 824.268 1867.75 824.268 1862.22 824.268 1737.78 824.268 1732.25 824.268 1607.82 824.268 1602.28 824.268 1484.05 824.268 1472.32 824.268 1394.59 824.268 1394.59 583.919 1442.13 570.442 1442.13 783.461 1472.32 783.461 1484.05 783.461 1602.28 783.461 1607.82 783.461 1732.25 783.461 1737.78 783.461 1862.22 783.461 1867.75 783.461 1990.31 783.461 1997.71 783.461 2031.48 783.461C2026.49 779.967 2023.62 775.038 2022.88 768.674 2022.13 762.309 2021.75 755.134 2021.75 747.147 2021.75 741.407 2022.69 735.291 2024.56 728.802 2026.43 722.313 2029.11 716.136 2032.61 710.271 2036.1 704.406 2040.28 699.414 2045.15 695.296 2050.01 691.178 2055.44 688.62 2061.43 687.621 2053.94 687.621 2047.64 686.685 2042.53 684.814 2037.41 682.942 2033.17 680.196 2029.8 676.577 2026.43 672.958 2023.87 668.591 2022.13 663.474 2020.38 658.357 2019.01 652.554 2018.01 646.065 2036.97 651.806 2068.79 656.673 2113.46 660.666 2133.67 663.162 2150.7 667.156 2164.55 672.646 2178.4 678.137 2189.63 685.687 2198.24 695.296 2206.85 704.905 2213.08 716.76 2216.95 730.862 2220.82 744.963 2222.75 761.997 2222.75 781.964L2222.75 783.461 2250.24 783.461 2259.43 783.461 2377.51 783.461 2377.51 772.23C2377.51 764.992 2375.51 757.193 2371.52 748.831 2367.52 740.47 2361.97 732.297 2354.86 724.31 2347.75 716.323 2339.2 708.648 2329.22 701.286 2319.24 693.923 2308.26 687.621 2296.28 682.38L2299.28 617.987ZM2784 275.642C2781.5 275.642 2777.14 278.512 2770.9 284.253 2767.15 287.997 2763.22 293.176 2759.11 299.789 2754.99 306.403 2751.56 312.331 2748.81 317.572 2759.29 325.559 2770.15 332.36 2781.38 337.976 2792.61 343.591 2803.46 347.897 2813.94 350.891 2810.95 328.429 2807.02 310.272 2802.15 296.42 2797.29 282.568 2791.23 275.642 2784 275.642ZM2387.94 268.529C2358.75 268.529 2325.69 291.116 2288.75 336.291L2432.49 336.291 2432.49 316.075C2432.49 301.848 2428.62 290.367 2420.88 281.632 2413.15 272.897 2402.17 268.529 2387.94 268.529ZM1468.28 261.79C1457.8 263.787 1448.26 266.283 1439.65 269.278 1431.04 272.273 1423.74 275.517 1417.75 279.011 1411.77 282.505 1407.09 286.249 1403.72 290.243 1400.35 294.236 1398.54 298.229 1398.29 302.223L1398.29 314.203C1398.29 321.441 1400.41 326.931 1404.65 330.675 1408.9 334.419 1415.76 336.291 1425.24 336.291L1468.28 336.291ZM2622.88 213.122 2622.88 336.291 2671.33 336.291 2683.14 336.291 2699.03 336.291C2706.52 319.07 2714.38 303.408 2722.61 289.307 2730.85 275.205 2739.02 263.225 2747.13 253.367 2755.24 243.508 2763.1 235.834 2770.71 230.342 2778.32 224.852 2785.37 222.106 2791.86 222.106 2808.33 222.106 2822.05 233.837 2833.03 257.298 2836.27 264.286 2839.52 273.084 2842.76 283.691 2846.01 294.298 2849.5 307.089 2853.24 322.064 2855.49 332.298 2856.36 339.785 2855.86 344.527 2855.36 351.016 2852.49 359.252 2847.25 369.236 2837.27 389.702 2827.79 399.935 2818.81 399.935 2815.56 399.935 2812.07 399.061 2808.33 397.314 2800.84 394.319 2790.67 389.702 2777.82 383.462 2764.97 377.223 2749.44 369.485 2731.22 360.251 2726.98 367.738 2722.11 372.605 2716.62 374.851 2712.38 376.349 2705.39 377.098 2695.66 377.098L2683.14 377.098 2671.33 377.098 2514.83 377.098 2504.98 377.098 2216.06 377.098 2208.65 377.098 2086.09 377.098 2080.56 377.098 1956.12 377.098 1950.59 377.098 1826.16 377.098 1820.63 377.098 1696.19 377.098 1690.66 377.098 1567.47 377.098 1560.7 377.098 1483.63 377.098C1480.89 375.351 1478.58 373.104 1476.71 370.359 1474.83 367.613 1473.28 364.868 1472.03 362.123 1470.78 359.128 1469.78 356.008 1469.03 352.763 1467.79 357.505 1465.29 361.624 1461.55 365.118 1458.3 368.113 1453.62 370.858 1447.51 373.354 1441.4 375.85 1433.1 377.098 1422.62 377.098 1397.17 377.098 1379.2 371.045 1368.72 358.941 1358.24 346.836 1353 330.176 1353 308.961 1353 298.479 1356.06 288.246 1362.17 278.263 1368.28 268.279 1377.83 259.294 1390.8 251.307 1403.78 243.321 1420.44 236.457 1440.77 230.717 1461.11 224.977 1485.38 221.108 1513.58 219.111L1513.58 336.291 1560.7 336.291 1567.47 336.291 1690.66 336.291 1696.19 336.291 1820.63 336.291 1826.16 336.291 1950.59 336.291 1956.12 336.291 2080.56 336.291 2086.09 336.291 2208.65 336.291 2216.06 336.291 2243.84 336.291 2243.84 244.943 2291.37 231.466 2291.75 286.499C2313.96 265.284 2334.61 249.436 2353.7 238.953 2372.79 228.47 2392.06 223.229 2411.53 223.229 2426.5 223.229 2438.54 227.036 2447.65 234.648 2456.75 242.26 2463.87 251.744 2468.98 263.1 2474.1 274.457 2477.53 286.686 2479.27 299.789 2481.02 312.892 2482.02 325.06 2482.27 336.291L2504.98 336.291 2514.83 336.291 2575.35 336.291 2575.35 226.599ZM2597.05 136C2604.79 136 2611.34 138.808 2616.71 144.423 2622.07 150.039 2624.75 156.84 2624.75 164.827 2624.75 172.564 2622.07 179.116 2616.71 184.482 2611.34 189.848 2604.79 192.531 2597.05 192.531 2589.07 192.531 2582.27 189.848 2576.66 184.482 2571.04 179.116 2568.23 172.564 2568.23 164.827 2568.23 156.84 2571.04 150.039 2576.66 144.423 2582.27 138.808 2589.07 136 2597.05 136ZM1487 136C1494.74 136 1501.29 138.808 1506.65 144.423 1512.02 150.039 1514.7 156.84 1514.7 164.827 1514.7 172.564 1512.02 179.116 1506.65 184.482 1501.29 189.848 1494.74 192.531 1487 192.531 1479.01 192.531 1472.21 189.848 1466.6 184.482 1460.99 179.116 1458.18 172.564 1458.18 164.827 1458.18 156.84 1460.99 150.039 1466.6 144.423 1472.21 138.808 1479.01 136 1487 136ZM1412.89 136C1420.62 136 1427.17 138.808 1432.54 144.423 1437.9 150.039 1440.59 156.84 1440.59 164.827 1440.59 172.564 1437.9 179.116 1432.54 184.482 1427.17 189.848 1420.62 192.531 1412.89 192.531 1404.9 192.531 1398.1 189.848 1392.49 184.482 1386.87 179.116 1384.07 172.564 1384.07 164.827 1384.07 156.84 1386.87 150.039 1392.49 144.423 1398.1 138.808 1404.9 136 1412.89 136Z" fill-rule="evenodd"/></g></svg>