<svg width="2379" height="800" xmlns="http://www.w3.org/2000/svg" xmlns:xlink="http://www.w3.org/1999/xlink" xml:space="preserve" overflow="hidden"><defs><clipPath id="clip0"><rect x="1394" y="123" width="2379" height="800"/></clipPath><linearGradient x1="3373.5" y1="923" x2="3373.5" y2="123" gradientUnits="userSpaceOnUse" spreadMethod="reflect" id="fill1"><stop offset="0" stop-color="#FC3F04"/><stop offset="0.15" stop-color="#FC3F04"/><stop offset="1" stop-color="#FFC000"/></linearGradient></defs><g clip-path="url(#clip0)" transform="translate(-1394 -123)"><path d="M3264 754.5C3264 726.61 3286.83 704 3315 704 3343.17 704 3366 726.61 3366 754.5 3366 782.39 3343.17 805 3315 805 3286.83 805 3264 782.39 3264 754.5Z" fill="#FFD966" fill-rule="evenodd"/><path d="M3261 325.5C3261 299.267 3282.27 278 3308.5 278 3334.73 278 3356 299.267 3356 325.5 3356 351.734 3334.73 373 3308.5 373 3282.27 373 3261 351.734 3261 325.5Z" fill="#FFD966" fill-rule="evenodd"/><path d="M3064 567C3064 511.219 3109.22 466 3165 466 3220.78 466 3266 511.219 3266 567 3266 622.781 3220.78 668 3165 668 3109.22 668 3064 622.781 3064 567Z" fill="#FFD966" fill-rule="evenodd"/><path d="M3373.96 123C3456.8 123 3533.75 148.184 3597.58 191.314L3626.81 213.171 3312.12 274.848C3286.66 279.838 3270.07 304.527 3275.06 329.992 3280.05 355.456 3304.73 372.054 3330.19 367.064L3701.78 294.233 3705.61 299.356C3716.4 315.316 3726.06 332.096 3734.48 349.584L3736 353.432 3723.94 354.572 3146.34 468.485C3093.82 478.842 3059.64 529.814 3070 582.333 3080.36 634.853 3131.32 669.033 3183.84 658.676L3761.44 544.762 3773 541.248 3771.86 563.898C3770.58 576.504 3768.71 588.938 3766.29 601.17L3763.29 613.29 3312.1 705.022C3285.48 710.433 3268.29 736.401 3273.7 763.021L3273.7 763.021C3279.11 789.641 3305.07 806.834 3331.69 801.423L3719.06 722.668 3691.56 766.159C3618.46 861.516 3503.39 923 3373.96 923 3153.07 923 2974 743.914 2974 523 2974 302.086 3153.07 123 3373.96 123Z" fill="url(#fill1)" fill-rule="evenodd"/><path d="M2074.27 518.731C2071.27 518.731 2068.71 519.729 2066.59 521.726 2064.47 523.722 2062.72 526.28 2061.35 529.399 2059.98 532.518 2058.98 535.887 2058.35 539.506 2057.73 543.124 2057.42 546.555 2057.42 549.799 2057.42 552.794 2057.6 556.412 2057.98 560.655 2058.35 564.896 2059.29 568.952 2060.79 572.82 2062.28 576.688 2064.53 579.931 2067.53 582.552 2070.52 585.172 2074.77 586.482 2080.26 586.482 2085.5 586.482 2089.43 584.049 2092.06 579.183 2094.68 574.317 2095.99 567.891 2095.99 559.906 2095.99 547.678 2093.8 537.759 2089.43 530.148 2085.07 522.536 2080.01 518.731 2074.27 518.731ZM2113.21 500.765C2119.95 506.005 2125.07 513.429 2128.57 523.036 2132.06 532.643 2133.81 543.436 2133.81 555.414 2133.81 561.403 2133 567.143 2131.38 572.632 2129.75 578.123 2128.57 582.739 2127.82 586.482L2175 586.482C2174.5 574.504 2173.38 563.587 2171.63 553.729 2169.89 543.873 2166.83 535.264 2162.46 527.902 2158.09 520.541 2151.97 514.552 2144.11 509.935 2136.24 505.319 2125.95 502.262 2113.21 500.765ZM2544.7 463.707C2549.69 491.656 2553.06 518.918 2554.81 545.495 2556.56 572.071 2557.43 595.715 2557.43 616.427 2557.43 618.174 2557.31 621.792 2557.06 627.282 2556.81 632.772 2555.81 639.073 2554.06 646.185 2552.32 653.297 2549.38 660.783 2545.26 668.644 2541.14 676.505 2535.21 683.742 2527.47 690.355 2519.74 696.967 2509.81 702.394 2497.7 706.637 2485.59 710.879 2470.55 713 2452.58 713L2443.97 686.05C2456.7 685.051 2468.06 682.057 2478.04 677.066 2482.29 674.82 2486.47 672.076 2490.59 668.831 2494.71 665.587 2498.39 661.657 2501.64 657.04 2504.88 652.424 2507.5 646.934 2509.5 640.57 2511.5 634.207 2512.5 626.908 2512.5 618.673 2512.5 595.965 2511.93 572.695 2510.81 548.864 2509.69 525.032 2506 501.513 2499.76 478.305ZM2654.97 452.852C2672.19 457.094 2687.3 464.518 2700.28 475.124 2713.26 485.729 2724 497.582 2732.48 510.683 2740.97 523.784 2747.34 537.135 2751.58 550.735 2755.83 564.335 2757.95 576.251 2757.95 586.482L2757.95 627.282 2622.76 627.282C2618.27 627.282 2614.15 627.033 2610.4 626.534 2606.66 626.034 2603.41 625.411 2600.67 624.662 2597.42 623.664 2594.42 622.666 2591.68 621.668L2595.05 580.867C2597.79 581.866 2600.79 582.864 2604.04 583.862 2606.78 584.61 2610.03 585.235 2613.77 585.733 2617.52 586.233 2621.64 586.482 2626.13 586.482L2710.76 586.482C2710.76 581.741 2710.01 575.44 2708.52 567.579 2707.02 559.719 2704.02 551.421 2699.53 542.687 2695.03 533.953 2688.42 525.282 2679.68 516.673 2670.94 508.063 2659.21 500.515 2644.48 494.026ZM2841 373.498 2841 627.282 2793.44 627.282 2793.44 386.973ZM2444.05 372 2432.06 421.784 2337.7 450.606C2348.18 457.843 2358.23 466.327 2367.84 476.06 2377.45 485.792 2386 495.774 2393.49 506.005 2401.48 517.234 2408.22 528.651 2413.72 540.255 2419.21 551.858 2421.95 563.524 2421.95 575.253L2421.95 586.482 2421.95 627.282 2259.26 627.282 2250.07 627.282 2222.56 627.282 1997.42 627.282 1990.01 627.282 1867.39 627.282 1861.85 627.282 1737.36 627.282 1731.82 627.282 1607.33 627.282 1601.8 627.282 1483.5 627.282 1471.77 627.282 1394 627.282 1394 386.973 1441.56 373.498 1441.56 586.482 1471.77 586.482 1483.5 586.482 1601.8 586.482 1607.33 586.482 1731.82 586.482 1737.36 586.482 1861.85 586.482 1867.39 586.482 1990.01 586.482 1997.42 586.482 2031.2 586.482C2026.21 582.988 2023.34 578.06 2022.59 571.697 2021.84 565.333 2021.47 558.159 2021.47 550.173 2021.47 544.434 2022.4 538.32 2024.27 531.832 2026.15 525.344 2028.83 519.168 2032.33 513.304 2035.82 507.44 2040 502.449 2044.87 498.331 2049.74 494.214 2055.17 491.656 2061.16 490.658 2053.67 490.658 2047.37 489.722 2042.25 487.851 2037.13 485.979 2032.89 483.234 2029.52 479.616 2026.15 475.997 2023.59 471.63 2021.84 466.515 2020.09 461.399 2018.72 455.597 2017.72 449.109 2036.7 454.849 2068.53 459.714 2113.21 463.707 2133.44 466.202 2150.48 470.195 2164.33 475.685 2178.19 481.175 2189.42 488.724 2198.03 498.331 2206.65 507.939 2212.89 519.792 2216.76 533.891 2220.63 547.99 2222.56 565.022 2222.56 584.985L2222.56 586.482 2250.07 586.482 2259.26 586.482 2377.39 586.482 2377.39 575.253C2377.39 568.016 2375.39 560.218 2371.4 551.858 2367.4 543.498 2361.85 535.326 2354.73 527.341 2347.62 519.355 2339.07 511.682 2329.08 504.32 2319.1 496.959 2308.11 490.658 2296.13 485.417L2299.12 421.035Z" fill-rule="evenodd"/></g></svg>
