<svg xmlns="http://www.w3.org/2000/svg" height="500pt" viewBox="-29 0 500 500" width="500pt"><path d="m351.21875 128.269531h-239.300781c-21.015625 0-38.0625 17.117188-38.015625 38.164063v167.3125c0 21.042968 17.09375 38.117187 38.105468 38.117187l236.929688-.136719c21.015625 0 38.0625-17.074218 38.015625-38.117187v-167.359375c0-20.222656-15.816406-36.75-35.734375-37.980469zm0 0" fill="#fff"/><path d="m249.132812 258.179688.015626 31.679687c.003906 9.394531-7.597657 17.019531-16.980469 17.019531-9.378907.003906-16.988281-7.609375-16.992188-17.003906l-.023437-31.683594c-15.550782-9.554687-21.902344-31.503906-7.617188-49.503906 5.605469-7.0625 14.382813-10.855469 23.390625-10.855469 13.863281 0 26.851563 8.171875 31.6875 21.1875 5.710938 15.375-.832031 31.371094-13.480469 39.160157zm0 0" fill="#fff"/><path d="m232.15625 312.878906c-6.132812 0-11.902344-2.390625-16.246094-6.734375-4.339844-4.34375-6.730468-10.121093-6.734375-16.265625l-.019531-28.511718c-7.894531-5.871094-13.300781-14.5625-15.015625-24.304688-1.96875-11.15625 1.121094-22.558594 8.695313-32.105469 6.527343-8.21875 17.027343-13.125 28.089843-13.125 16.738281 0 31.730469 10.085938 37.3125 25.097657 5.996094 16.140624.484375 34.273437-13.101562 44.417968l.011719 28.511719c.003906 6.144531-2.382813 11.921875-6.722657 16.273437-4.339843 4.351563-10.113281 6.746094-16.257812 6.746094-.003907 0-.007813 0-.011719 0zm-1.230469-109.046875c-7.433593 0-14.421875 3.210938-18.6875 8.585938-6.9375 8.742187-7.246093 17.09375-6.28125 22.5625 1.320313 7.496093 5.820313 14.09375 12.339844 18.097656 1.773437 1.09375 2.855469 3.027344 2.855469 5.109375l.023437 31.679688c.003907 2.945312 1.148438 5.714843 3.226563 7.792968 2.074218 2.074219 4.828125 3.21875 7.757812 3.21875h.007813c2.933593 0 5.6875-1.144531 7.765625-3.222656 2.074218-2.082031 3.21875-4.851562 3.214844-7.792969l-.011719-31.683593c0-2.082032 1.078125-4.019532 2.851562-5.109376 10.960938-6.75 15.484375-19.894531 11-31.964843-3.839843-10.332031-14.3125-17.273438-26.0625-17.273438zm0 0"/><path d="m199.9375 103.8125c0-55.226562-44.757812-100-99.96875-100s-99.96875 44.773438-99.96875 100c0 55.230469 44.757812 100 99.96875 100s99.96875-44.769531 99.96875-100zm0 0" fill="#7efcb7"/><path d="m112.011719 377.863281c-24.324219 0-44.109375-19.792969-44.109375-44.117187v-167.3125c-.023438-11.785156 4.550781-22.882813 12.886718-31.238282 8.320313-8.335937 19.375-12.925781 31.128907-12.925781l239.671875.011719c23.195312 1.433594 41.363281 20.75 41.363281 43.96875v167.359375c.027344 11.769531-4.542969 22.851563-12.863281 31.191406-8.320313 8.335938-19.378906 12.925781-31.148438 12.925781zm-.09375-243.59375c-8.546875 0-16.582031 3.339844-22.632813 9.402344-6.070312 6.082031-9.402344 14.160156-9.382812 22.75v167.324219c0 17.710937 14.402344 32.117187 32.105468 32.117187l236.925782-.136719c8.5625 0 16.609375-3.339843 22.660156-9.402343 6.054688-6.066407 9.378906-14.132813 9.359375-22.703125v-167.371094c0-16.835938-13.132813-30.851562-29.929687-31.980469zm0 0"/><path d="m328.796875 98.507812h-12c0-47.699218-38.746094-86.507812-86.367187-86.507812-47.625 0-86.367188 38.808594-86.367188 86.507812h-12c0-54.316406 44.125-98.507812 98.367188-98.507812 54.238281 0 98.367187 44.191406 98.367187 98.507812zm0 0"/><path d="m83.386719 481.375-6.835938 10.175781-19.703125-13.441406.675782 21.890625h-13.113282l.492188-21.339844-19.335938 12.953125-6.710937-10.238281 21.859375-12.886719-21.800782-13.011719 6.652344-10.300781 19.273438 13.136719-.433594-21.339844h13.054688l-.492188 21.398438 19.519531-13.011719 6.835938 10.238281-22.046875 12.828125zm0 0"/><path d="m173.039062 481.375-6.835937 10.175781-19.703125-13.441406.679688 21.890625h-13.117188l.492188-21.339844-19.335938 12.953125-6.710938-10.238281 21.859376-12.886719-21.796876-13.011719 6.648438-10.300781 19.273438 13.136719-.429688-21.339844h13.050781l-.492187 21.398438 19.519531-13.011719 6.835937 10.238281-22.042968 12.828125zm0 0"/><path d="m262.691406 481.375-6.832031 10.175781-19.707031-13.441406.679687 21.890625h-13.113281l.492188-21.339844-19.335938 12.953125-6.710938-10.238281 21.859376-12.886719-21.800782-13.011719 6.652344-10.300781 19.273438 13.136719-.433594-21.339844h13.054687l-.492187 21.398438 19.519531-13.011719 6.835937 10.238281-22.046874 12.828125zm0 0"/><path d="m352.347656 481.375-6.835937 10.175781-19.703125-13.441406.675781 21.890625h-13.113281l.492187-21.339844-19.335937 12.953125-6.710938-10.238281 21.859375-12.886719-21.796875-13.011719 6.648438-10.300781 19.273437 13.136719-.433593-21.339844h13.054687l-.492187 21.398438 19.519531-13.011719 6.835937 10.238281-22.046875 12.828125zm0 0"/><path d="m442 481.375-6.835938 10.175781-19.703124-13.441406.675781 21.890625h-13.113281l.492187-21.339844-19.335937 12.953125-6.710938-10.238281 21.859375-12.886719-21.800781-13.011719 6.652344-10.300781 19.273437 13.136719-.433594-21.339844h13.054688l-.492188 21.398438 19.519531-13.011719 6.835938 10.238281-22.046875 12.828125zm0 0"/></svg>
