<?xml version="1.0" encoding="UTF-8"?>
<!-- Generator: Adobe Illustrator 24.2.3, SVG Export Plug-In . SVG Version: 6.00 Build 0)  -->
<svg xmlns="http://www.w3.org/2000/svg" xmlns:xlink="http://www.w3.org/1999/xlink" version="1.1" id="Capa_1" x="0px" y="0px" viewBox="0 0 512 512" style="enable-background:new 0 0 512 512;" xml:space="preserve" width="512" height="512">
<g>
	<path d="M501,377.158h-9.332V73.012c0-22.882-18.616-41.498-41.498-41.498H61.83c-22.882,0-41.498,18.616-41.498,41.498v304.146H11   c-6.075,0-11,4.925-11,11v20.332c0,39.699,32.297,71.996,71.996,71.996h368.008c39.699,0,71.996-32.297,71.996-71.996v-20.332   C512,382.083,507.075,377.158,501,377.158z M42.332,73.012c0-10.751,8.747-19.498,19.498-19.498h388.34   c10.751,0,19.498,8.747,19.498,19.498v304.146h-132.34c-2.917,0-5.715,1.159-7.778,3.222l-17.11,17.11H199.561l-17.11-17.11   c-2.063-2.063-4.861-3.222-7.778-3.222H42.332V73.012z M490,408.49c0,27.568-22.428,49.996-49.996,49.996H71.996   C44.428,458.485,22,436.058,22,408.49v-9.332h148.116l17.11,17.11c2.063,2.062,4.861,3.222,7.778,3.222h121.992   c2.917,0,5.715-1.159,7.778-3.222l17.11-17.11H490V408.49z"/>
	<g>
		<path style="fill:#33CCCC;" d="M327.996,185.896V154.34c0-39.699-32.297-71.996-71.996-71.996s-71.996,32.297-71.996,71.996    v31.556c-11.853,4.358-20.332,15.761-20.332,29.108v102.324c0,17.093,13.907,31,31,31h122.655c17.093,0,31-13.907,31-31V215.004    C348.328,201.658,339.849,190.254,327.996,185.896z M256,104.344c27.568,0,49.996,22.428,49.996,49.996v29.664h-99.992V154.34    C206.004,126.772,228.432,104.344,256,104.344z M326.328,317.328c0,4.962-4.038,9-9,9H194.672c-4.962,0-9-4.038-9-9V215.004    c0-4.962,4.038-9,9-9h122.655c4.962,0,9,4.038,9,9V317.328z"/>
		<path style="fill:#33CCCC;" d="M280.57,236.822l-35.353,35.353l-13.787-13.788c-4.296-4.296-11.261-4.296-15.557,0    c-4.295,4.296-4.295,11.261,0,15.557l21.565,21.565c2.148,2.148,4.963,3.222,7.778,3.222s5.63-1.074,7.778-3.222l43.131-43.131    c4.295-4.296,4.295-11.261,0-15.557C291.831,232.526,284.866,232.526,280.57,236.822z"/>
	</g>
</g>















</svg>
